#!OML:ASF F:\VICON\USERDATA\Patient Classification 1\PLAYGROUND\JustinFriday\JustinFriday.ASF
:FULLY-SPECIFIED
:DEGREES
4103
root 41.4919 18.6245 -10.2909 -346.766 -63.901 -14.3263
lowerback 20.7778 4.2957 11.2021
upperback 4.55965 8.03892 4.95865
thorax -5.72457 3.63586 -2.85835
lowerneck -9.1727 2.01088 -3.60702
upperneck 26.1453 4.30187 -4.2927
head 9.83218 1.04905 -0.429737
rclavicle -2.78299e-015 -5.24792e-014
rhumerus 21.2025 -15.1419 -66.2293
rradius 21.9253
rwrist 29.7041
rhand -29.856 -20.2286
rfingers 7.12502
rthumb -3.17835 -50.1846
lclavicle -2.78299e-015 -5.24792e-014
lhumerus -33.814 21.1041 64.1248
lradius 34.5699
lwrist -15.9429
lhand -17.3602 -8.09188
lfingers 7.12502
lthumb 8.88774 21.7009
rfemur 2.62968 -5.35841 30.4063
rtibia 11.3365
rfoot -10.9607 -3.39746
rtoes 18.3164
lfemur -43.9498 14.2218 -6.68873
ltibia 91.6927
lfoot -20.1008 -3.241
ltoes 11.4099
4104
root 41.4783 18.6306 -10.2698 -348.17 -63.5556 -12.6304
lowerback 20.2983 4.41253 10.7232
upperback 4.51309 8.02278 4.54568
thorax -5.53152 3.65867 -2.99786
lowerneck -9.58071 2.00659 -3.09235
upperneck 26.1705 4.32093 -4.62697
head 9.93814 1.06668 -0.626841
rclavicle 1.98785e-015 1.11319e-014
rhumerus 20.7521 -15.3085 -65.901
rradius 21.7586
rwrist 28.9917
rhand -30.574 -21.2103
rfingers 7.12502
rthumb -3.87175 -51.1548
lclavicle 1.98785e-015 1.11319e-014
lhumerus -34.5662 23.8785 60.9378
lradius 32.7429
lwrist -18.4889
lhand -16.2144 -9.72063
lfingers 7.12502
lthumb 9.99329 20.0221
rfemur 2.4784 -5.6422 29.6358
rtibia 11.4807
rfoot -11.21 -3.59456
rtoes 18.612
lfemur -42.7731 13.8944 -7.27621
ltibia 89.7818
lfoot -19.3834 -2.08186
ltoes 12.2488
4105
root 41.4725 18.6316 -10.258 -349.706 -63.1453 -10.8559
lowerback 20.0858 4.49395 9.74379
upperback 4.32825 7.94175 4.5045
thorax -5.76663 3.62532 -2.49465
lowerneck -9.43578 2.0565 -3.36082
upperneck 26.073 4.49367 -4.86824
head 9.88126 1.09918 -0.647573
rclavicle 2.62396e-014 -6.52014e-014
rhumerus 20.3905 -15.448 -65.4772
rradius 21.4627
rwrist 29.2409
rhand -30.7753 -21.9513
rfingers 7.12502
rthumb -4.06614 -51.8923
lclavicle 2.62396e-014 -6.52014e-014
lhumerus -36.2503 26.5724 57.9421
lradius 31.6664
lwrist -20.9302
lhand -15.3536 -11.8969
lfingers 7.12502
lthumb 10.8237 17.8042
rfemur 2.21384 -5.81317 28.8788
rtibia 11.9732
rfoot -11.7847 -3.90388
rtoes 20.0622
lfemur -41.5976 13.5754 -7.8787
ltibia 87.8444
lfoot -18.8791 -0.571545
ltoes 10.2182
4106
root 41.4678 18.6509 -10.2558 -350.162 -62.7327 -10.4229
lowerback 20.2234 4.55949 8.79051
upperback 3.94097 7.94515 5.01222
thorax -6.47786 3.60314 -1.4815
lowerneck -8.64897 2.26258 -4.27082
upperneck 26.005 4.92499 -5.02768
head 9.70224 1.20461 -0.512276
rclavicle -1.52667e-013 -1.27222e-014
rhumerus 19.748 -14.8404 -64.4982
rradius 21.2652
rwrist 29.4083
rhand -30.6397 -22.7401
rfingers 7.12502
rthumb -3.93521 -52.6835
lclavicle -1.52667e-013 -1.27222e-014
lhumerus -38.9756 28.2917 55.5087
lradius 31.7017
lwrist -22.8952
lhand -15.1514 -11.8666
lfingers 7.12502
lthumb 11.0187 17.8242
rfemur 1.91862 -5.40779 28.8381
rtibia 12.7643
rfoot -12.5082 -4.52696
rtoes 21.8932
lfemur -40.1091 12.8024 -7.6904
ltibia 85.8171
lfoot -18.7399 0.78661
ltoes 12.3538
4107
root 41.4696 18.6104 -10.2479 -348.682 -62.0091 -12.076
lowerback 19.9543 4.19436 10.6793
upperback 3.88672 7.77012 4.19708
thorax -6.02498 3.5084 -3.29888
lowerneck -8.78335 2.36605 -3.27017
upperneck 25.6403 4.78363 -4.59554
head 9.59489 1.30143 -0.541884
rclavicle -3.4191e-014 -5.40694e-014
rhumerus 19.6571 -16.7373 -66.0552
rradius 20.8865
rwrist 30.6349
rhand -29.7888 -22.5658
rfingers 7.12502
rthumb -3.11354 -52.5228
lclavicle -3.4191e-014 -5.40694e-014
lhumerus -39.2076 28.188 52.8253
lradius 31.8757
lwrist -24.3094
lhand -15.6743 -10.6618
lfingers 7.12502
lthumb 10.5144 19.0553
rfemur 1.46973 -4.81747 29.9279
rtibia 13.5905
rfoot -13.2113 -5.31932
rtoes 23.0652
lfemur -39.3172 13.3926 -6.28468
ltibia 84.1857
lfoot -18.5748 1.19771
ltoes 15.9201
4108
root 41.468 18.5592 -10.2303 -347.713 -61.2751 -13.2838
lowerback 19.7937 4.37129 10.4277
upperback 3.7384 8.00357 5.05146
thorax -6.24178 3.60812 -2.29752
lowerneck -8.55506 2.31436 -4.0619
upperneck 25.6497 4.90264 -4.84401
head 9.55265 1.25694 -0.484964
rclavicle -1.11319e-014 4.45278e-014
rhumerus 18.9907 -15.9534 -64.2997
rradius 20.7813
rwrist 29.947
rhand -29.179 -23.0403
rfingers 7.12502
rthumb -2.52463 -53.0051
lclavicle -1.11319e-014 4.45278e-014
lhumerus -41.1907 29.0625 51.6204
lradius 32.0919
lwrist -27.011
lhand -17.4932 -9.36393
lfingers 7.12502
lthumb 8.75947 20.4343
rfemur 1.17162 -4.70799 30.7576
rtibia 14.364
rfoot -13.769 -5.91261
rtoes 22.6302
lfemur -38.4654 14.0396 -5.13101
ltibia 82.4828
lfoot -18.5806 1.95789
ltoes 16.2272
4109
root 41.4597 18.5401 -10.212 -348.28 -60.8391 -12.894
lowerback 19.698 4.26109 10.4791
upperback 3.76733 7.84161 4.80841
thorax -6.13175 3.539 -2.53904
lowerneck -8.65335 2.4649 -4.11393
upperneck 25.5978 5.11209 -4.75551
head 9.55036 1.36069 -0.421718
rclavicle -4.73108e-014 2.06736e-014
rhumerus 18.9291 -16.7381 -64.6686
rradius 20.38
rwrist 30.3099
rhand -28.9336 -23.1777
rfingers 7.12502
rthumb -2.2876 -53.1452
lclavicle -4.73108e-014 2.06736e-014
lhumerus -42.7085 30.99 48.1435
lradius 33.271
lwrist -23.3816
lhand -8.12778 -12.5028
lfingers 7.12502
lthumb 17.7859 16.7038
rfemur 0.921425 -4.73143 30.643
rtibia 15.4392
rfoot -14.5057 -6.25793
rtoes 23.4357
lfemur -37.1151 14.079 -4.92418
ltibia 80.4969
lfoot -19.1356 3.00145
ltoes 14.104
4110
root 41.4494 18.5347 -10.1939 -348.852 -60.3281 -12.3646
lowerback 19.684 4.68441 9.47636
upperback 3.61339 8.25254 5.25556
thorax -6.46688 3.74082 -1.62552
lowerneck -8.51269 2.3002 -4.26453
upperneck 25.6948 5.0246 -5.22821
head 9.57329 1.25365 -0.571364
rclavicle 3.61788e-014 6.99722e-014
rhumerus 18.1201 -17.3239 -63.232
rradius 20.2889
rwrist 30.0839
rhand -28.1722 -22.6351
rfingers 7.12502
rthumb -1.55227 -52.6092
lclavicle 3.61788e-014 6.99722e-014
lhumerus -44.0196 31.6345 46.6958
lradius 33.3028
lwrist -24.458
lhand -6.97901 -13.777
lfingers 7.12502
lthumb 18.891 15.3257
rfemur 0.648457 -4.65536 30.4615
rtibia 16.336
rfoot -15.2596 -6.65899
rtoes 24.6185
lfemur -35.8889 14.0869 -4.87789
ltibia 78.3991
lfoot -19.6932 4.07385
ltoes 13.0399
4111
root 41.4362 18.5265 -10.1735 -349.147 -59.7055 -12.0015
lowerback 19.191 4.69012 9.72884
upperback 3.68629 8.2141 4.8064
thorax -6.01917 3.74893 -2.17644
lowerneck -8.46195 2.2914 -3.67287
upperneck 25.2655 4.91766 -5.34372
head 9.42193 1.27211 -0.719854
rclavicle -1.03368e-013 -4.29375e-014
rhumerus 17.7235 -18.2918 -63.2989
rradius 20.2552
rwrist 29.7976
rhand -27.6613 -22.7514
rfingers 7.12502
rthumb -1.05876 -52.7285
lclavicle -1.03368e-013 -4.29375e-014
lhumerus -44.2549 32.3636 44.4159
lradius 33.0807
lwrist -25.6439
lhand -6.27097 -14.7888
lfingers 7.12502
lthumb 19.5719 14.246
rfemur 0.35913 -4.64017 30.4005
rtibia 16.9995
rfoot -15.6528 -7.29188
rtoes 23.4904
lfemur -34.9394 14.1887 -4.78167
ltibia 76.2309
lfoot -20.0858 4.90058
ltoes 14.0139
4112
root 41.4234 18.5187 -10.1554 -349.806 -58.9732 -11.2227
lowerback 18.7984 4.61268 9.49611
upperback 3.69615 8.0115 4.58151
thorax -5.81626 3.67289 -2.21073
lowerneck -8.49756 2.33683 -3.64753
upperneck 25.0021 4.96802 -5.32666
head 9.33566 1.31294 -0.710767
rclavicle 9.10434e-014 -1.74931e-014
rhumerus 17.4933 -19.1762 -63.3457
rradius 20.0598
rwrist 30.2939
rhand -27.1257 -22.3751
rfingers 7.12502
rthumb -0.541497 -52.3542
lclavicle 9.10434e-014 -1.74931e-014
lhumerus -45.2648 33.5493 41.8063
lradius 32.7037
lwrist -27.5309
lhand -6.55238 -15.8105
lfingers 7.12502
lthumb 19.3013 13.2517
rfemur 0.105082 -4.77014 30.1261
rtibia 17.6058
rfoot -16.071 -7.80331
rtoes 23.2993
lfemur -34.0419 13.9224 -4.87888
ltibia 73.9657
lfoot -20.4933 5.51887
ltoes 16.6652
4113
root 41.4191 18.5056 -10.1418 -350.116 -57.9407 -10.7851
lowerback 18.313 4.2705 9.89742
upperback 3.77029 7.54629 4.1164
thorax -5.39871 3.47091 -2.77473
lowerneck -8.84805 2.42037 -3.57904
upperneck 24.8174 5.00464 -4.94528
head 9.32473 1.38201 -0.581384
rclavicle -5.08889e-014 1.43125e-014
rhumerus 18.0171 -21.834 -64.8048
rradius 19.4635
rwrist 33.0893
rhand -26.3297 -20.804
rfingers 7.12502
rthumb 0.227354 -50.7836
lclavicle -5.08889e-014 1.43125e-014
lhumerus -45.7797 34.8325 39.2256
lradius 32.0256
lwrist -28.4152
lhand -5.30618 -16.9784
lfingers 7.12502
lthumb 20.4992 11.9594
rfemur -0.26429 -5.23504 30.0936
rtibia 18.1744
rfoot -16.942 -7.87415
rtoes 26.139
lfemur -33.4032 13.5346 -4.77663
ltibia 71.6888
lfoot -20.525 6.58786
ltoes 17.0231
4114
root 41.4175 18.4921 -10.1324 -350.115 -56.9533 -10.5914
lowerback 18.2689 4.35698 9.099
upperback 3.4161 7.5924 4.67428
thorax -5.94483 3.47486 -1.78285
lowerneck -8.62841 2.34643 -4.30954
upperneck 25.0312 5.05709 -5.0645
head 9.35243 1.31945 -0.498142
rclavicle 5.84427e-014 1.74931e-014
rhumerus 17.3844 -22.4399 -63.636
rradius 19.2782
rwrist 34.2871
rhand -25.6288 -19.6787
rfingers 7.12502
rthumb 0.904222 -49.6566
lclavicle 5.84427e-014 1.74931e-014
lhumerus -47.3573 36.3511 37.1871
lradius 31.2835
lwrist -30.3328
lhand -4.46873 -18.2765
lfingers 7.12502
lthumb 21.3038 10.5726
rfemur -0.730004 -5.58768 30.222
rtibia 18.6697
rfoot -17.7912 -8.24682
rtoes 27.3205
lfemur -32.9839 13.4286 -4.60681
ltibia 69.4034
lfoot -20.1719 7.88928
ltoes 14.8455
4115
root 41.408 18.4911 -10.1135 -350.817 -56.2665 -9.76382
lowerback 18.2231 4.39108 8.47907
upperback 3.24127 7.54553 4.6495
thorax -6.19383 3.45459 -1.47249
lowerneck -8.43876 2.32389 -4.40114
upperneck 25.0488 5.05871 -5.1841
head 9.32581 1.30187 -0.526322
rclavicle 1.08536e-013 -5.08889e-014
rhumerus 16.7539 -23.0931 -63.0483
rradius 19.1552
rwrist 34.8387
rhand -25.1274 -18.5118
rfingers 7.12502
rthumb 1.38854 -48.487
lclavicle 1.08536e-013 -5.08889e-014
lhumerus -48.499 37.8603 34.6653
lradius 30.4138
lwrist -32.1781
lhand -3.57611 -19.2598
lfingers 7.12502
lthumb 22.161 9.49001
rfemur -0.887306 -5.67879 29.8469
rtibia 19.1209
rfoot -18.6232 -9.06894
rtoes 26.0148
lfemur -32.1841 13.3373 -4.88236
ltibia 67.0722
lfoot -19.9473 8.81878
ltoes 14.364
4116
root 41.3939 18.4864 -10.0809 -351.542 -55.6077 -9.02526
lowerback 18.1193 4.30986 8.27204
upperback 3.205 7.38065 4.34836
thorax -6.17439 3.38283 -1.63878
lowerneck -8.59964 2.32572 -4.14354
upperneck 25.0571 5.05744 -5.2778
head 9.36669 1.31355 -0.599479
rclavicle 2.74323e-014 -5.725e-014
rhumerus 16.3425 -24.2883 -63.1473
rradius 19.0085
rwrist 35.703
rhand -24.6158 -17.5612
rfingers 7.12502
rthumb 1.88264 -47.5327
lclavicle 2.74323e-014 -5.725e-014
lhumerus -48.9013 38.2111 33.1831
lradius 30.2534
lwrist -33.2894
lhand -4.59962 -17.4816
lfingers 7.12502
lthumb 21.1781 11.3816
rfemur -0.887449 -5.66398 29.4663
rtibia 19.5728
rfoot -18.3375 -9.55295
rtoes 25.4946
lfemur -31.2434 13.2785 -5.10899
ltibia 64.8077
lfoot -20.1924 9.20641
ltoes 16.3078
